<svg width="643" height="200" viewBox="0 0 643 200" fill="none" xmlns="http://www.w3.org/2000/svg">
<path d="M1.75 0.5H1.25V1V199V199.5H1.75H67.4913C86.5105 199.5 101.827 195.196 112.392 185.777C122.967 176.349 128.696 161.871 128.696 141.712C128.696 129.419 127.571 120.538 123.735 113.199C119.93 105.921 113.495 100.225 103.035 94.1967C119.18 85.3409 125.515 69.6523 125.515 52.216C125.515 32.1538 118.568 19.18 107.108 11.2479C95.6839 3.34053 79.8542 0.5 62.1896 0.5H1.75ZM195.674 199V121.356H210.53C215.817 121.745 219.311 123.853 221.667 127.309C224.048 130.802 225.296 135.717 225.957 141.766C226.616 147.807 226.683 154.909 226.683 162.7C226.683 163.663 226.682 164.637 226.681 165.621C226.673 172.582 226.666 180.025 227.014 187.671L227.015 187.681C227.285 191.709 228.363 195.455 229.694 199.169L229.813 199.5H230.165H281.061H281.561V199V196.36V196.133L281.39 195.983C279.365 194.218 278.079 191.939 277.035 189.35C275.726 183.052 274.999 171.441 274.437 159.377C274.277 155.943 274.13 152.474 273.986 149.085C273.626 140.573 273.287 132.567 272.812 126.893C272.013 113.142 262.842 104.084 250.021 100.986C259.595 96.4849 265.685 90.4901 269.382 82.9952C273.143 75.371 274.404 66.2396 274.404 55.648C274.404 35.9073 269.615 22.0817 259.927 13.2044C250.249 4.33576 235.783 0.5 216.646 0.5H148.518H148.018V1V199V199.5H148.518H195.174H195.674V199ZM333.99 199.5H334.423L334.484 199.071L339.989 160.956H375.717L382.273 199.085L382.344 199.5H382.765H429.951H430.571L430.439 198.893L387.23 0.893395L387.144 0.5H386.742H330.543H330.141L330.055 0.892771L286.581 198.893L286.448 199.5H287.069H333.99ZM492.157 199.5H492.657V199V1V0.5H492.157H445.502H445.002V1V199V199.5H445.502H492.157ZM593.559 199.156L593.672 199.5H594.035H641.75H642.25V199V1V0.5H641.75H597.481H596.96L596.981 1.02035L601.454 110.806L565.616 0.845063L565.503 0.5H565.14H517.16H516.66V1V199V199.5H517.16H561.429H561.949L561.929 198.981L557.731 89.7667L593.559 199.156ZM48.9051 162.849V115.04C49.58 115.066 50.2465 115.091 50.9044 115.116C54.9048 115.266 58.5883 115.405 61.9182 115.752C65.9351 116.17 69.3874 116.888 72.2087 118.269C75.0149 119.643 77.2084 121.677 78.7096 124.762C80.2176 127.862 81.0408 132.052 81.0408 137.752C81.0408 151.071 78.5806 157.065 73.4767 159.921C70.8884 161.369 67.5629 162.047 63.3833 162.387C60.2393 162.644 56.6549 162.707 52.5824 162.779C51.3983 162.8 50.1729 162.821 48.9051 162.849ZM48.9051 37.1398C49.3594 37.1394 49.8109 37.1386 50.2596 37.1378C53.6982 37.1315 56.9673 37.1256 59.987 37.3205C63.5446 37.5501 66.712 38.0568 69.3549 39.1482C71.9852 40.2343 74.0951 41.8988 75.5563 44.4612C77.0234 47.034 77.8598 50.5532 77.8598 55.384C77.8598 67.0982 75.4756 72.3825 70.792 75.012C68.4121 76.3482 65.3862 77.0324 61.6401 77.4592C58.9987 77.7602 56.0368 77.9302 52.7254 78.1202C51.5003 78.1905 50.2274 78.2636 48.9051 78.3471V37.1398ZM195.674 84.716V37.1288C201.164 37.0064 205.864 36.987 209.839 37.3646C213.932 37.7535 217.211 38.5599 219.771 40.0734C224.83 43.0652 227.279 48.9543 227.279 60.664C227.279 66.7091 226.485 72.7469 224.058 77.2571C222.85 79.5045 221.241 81.363 219.13 82.6616C217.02 83.9596 214.379 84.716 211.079 84.716H195.674ZM358.373 38.5133L371.053 125.108H345.175L358.373 38.5133Z" fill="white" stroke="url(#paint0_linear_3620_31216)"/>
<defs>
<linearGradient id="paint0_linear_3620_31216" x1="1.47917" y1="199" x2="113.377" y2="-162.535" gradientUnits="userSpaceOnUse">
<stop stop-color="#0096FF"/>
<stop offset="0.21875" stop-color="#029CAF"/>
<stop offset="0.46875" stop-color="#FFA800"/>
<stop offset="0.71456" stop-color="#FE8058"/>
<stop offset="1" stop-color="#FF2F92"/>
</linearGradient>
</defs>
</svg>
