<svg width="643" height="205" viewBox="0 0 643 205" fill="none" xmlns="http://www.w3.org/2000/svg">
<path d="M129.148 150.685V150.679V60.5467C129.148 41.0443 126.173 21.0183 107.481 10.0422L107.478 10.0404C91.8879 1.03084 70.8716 0.5 53.5398 0.5H1.75H1.25V1V204V204.5H1.75H66.0127C80.6667 204.5 95.9782 203.151 108.581 194.948C122.603 186.164 128.876 171.082 129.148 150.685ZM80.426 129.567V129.574L80.4262 129.582C80.6297 136.354 80.7639 142.212 80.3556 147.17C79.9472 152.129 78.9994 156.13 77.0784 159.211C73.3116 165.253 65.6365 167.989 49.9725 166.992V38.052C55.5768 38.1865 60.2459 38.3779 64.1158 38.9316C68.1031 39.5019 71.1929 40.4509 73.5586 42.0795C78.2501 45.3092 80.2902 51.3599 80.426 63.2563V129.567ZM199.556 204V124.383H214.765C220.176 124.782 223.753 126.945 226.165 130.491C228.602 134.075 229.88 139.117 230.555 145.319C231.23 151.514 231.298 158.795 231.298 166.783C231.298 167.771 231.297 168.77 231.296 169.778C231.288 176.915 231.28 184.546 231.637 192.384L231.638 192.395C231.914 196.522 233.016 200.361 234.378 204.168L234.496 204.5H234.848H286.909H287.409V204V201.293V201.066L287.238 200.917C285.164 199.105 283.848 196.766 282.78 194.111C281.44 187.652 280.697 175.746 280.122 163.377C279.958 159.856 279.807 156.3 279.661 152.825C279.292 144.098 278.945 135.89 278.46 130.073C277.643 115.97 268.25 106.682 255.122 103.515C264.931 98.8992 271.169 92.7496 274.953 85.0598C278.798 77.2457 280.088 67.8862 280.088 57.028C280.088 36.7909 275.19 22.6204 265.284 13.5223C255.388 4.43252 240.594 0.5 221.02 0.5H151.334H150.834V1V204V204.5H151.334H199.056H199.556V204ZM352.165 204.5H352.665V204V1V0.5H352.165H304.443H303.943V1V204V204.5H304.443H352.165ZM469.389 204.5H469.792L469.878 204.107L514.346 1.10699L514.479 0.5H513.858H466.135H465.714L465.643 0.915528L441.461 141.993L417.279 0.915528L417.208 0.5H416.786H369.064H368.443L368.575 1.10637L412.773 204.106L412.858 204.5H413.261H469.389ZM641.75 204.5H642.25V204V163.4V162.9H641.75H577.445V120.052H636.598H637.098V119.552V78.952V78.452H636.598H577.445V42.1H638.496H638.996V41.6V1V0.5H638.496H529.222H528.722V1V204V204.5H529.222H641.75ZM199.556 86.8427V38.0287C205.177 37.903 209.989 37.8829 214.058 38.2704C218.246 38.6691 221.602 39.4961 224.222 41.049C229.403 44.1198 231.908 50.1639 231.908 62.1707C231.908 68.3692 231.095 74.5622 228.612 79.1892C227.375 81.495 225.728 83.4021 223.566 84.7348C221.406 86.0668 218.703 86.8427 215.326 86.8427H199.556Z" fill="white" stroke="url(#paint0_linear_3620_31217)"/>
<defs>
<linearGradient id="paint0_linear_3620_31217" x1="1.47917" y1="204" x2="118.576" y2="-165.015" gradientUnits="userSpaceOnUse">
<stop stop-color="#0096FF"/>
<stop offset="0.21875" stop-color="#029CAF"/>
<stop offset="0.46875" stop-color="#FFA800"/>
<stop offset="0.71456" stop-color="#FE8058"/>
<stop offset="1" stop-color="#FF2F92"/>
</linearGradient>
</defs>
</svg>
