<svg width="643" height="198" viewBox="0 0 643 198" fill="none" xmlns="http://www.w3.org/2000/svg">
<path d="M1.03198 129.421H0.531982V129.921V149.87C0.531982 162.33 4.82865 174.253 14.2358 183.058C23.6421 191.862 38.104 197.5 58.3423 197.5C76.6998 197.5 90.9826 192.487 100.676 182.892C110.37 173.296 115.402 159.188 115.402 141.142C115.402 118.342 109.358 105.729 98.974 96.139C93.8034 91.3641 87.6346 87.3525 80.7151 83.2345C78.4334 81.8765 76.0718 80.508 73.636 79.0964C68.6725 76.22 63.4004 73.1648 57.8667 69.6562C53.4999 66.6721 49.9422 63.7882 47.6223 60.2904C45.3155 56.8125 44.211 52.6934 44.8242 47.1901C45.3141 43.1669 46.836 39.9927 49.2814 37.9127C51.7238 35.8352 55.149 34.7968 59.5523 35.1624L59.5523 35.1625L59.5594 35.1629C63.0979 35.4061 65.6813 36.4956 67.5897 38.1298C69.5031 39.7682 70.7758 41.9865 71.6326 44.5479C73.1176 48.9869 73.3239 54.3431 73.5139 59.2783C73.5444 60.071 73.5745 60.8528 73.6094 61.6182L73.6312 62.0954H74.1089H114.652H115.124L115.151 61.6238C116.157 43.948 111.756 28.6592 102.233 17.7832C92.7044 6.90089 78.1031 0.5 58.8428 0.5C41.7417 0.5 27.7775 5.01093 18.0852 14.0056C8.38685 23.0059 3.03462 36.4314 3.03462 54.1145C3.03462 70.6859 7.82844 82.2722 15.9162 91.8418L15.9161 91.8419L15.9211 91.8476C24.2404 101.393 35.8197 108.66 49.3294 116.388C50.4644 117.076 51.6096 117.752 52.7524 118.427C57.4423 121.197 62.091 123.943 65.8239 127.39C70.4361 131.648 73.6089 136.946 73.6089 144.634C73.6089 149.302 72.4978 153.87 70.1624 157.254C67.8408 160.619 64.2989 162.836 59.3434 162.836C52.4615 162.836 48.2513 160.518 45.7366 156.969C43.198 153.385 42.3249 148.461 42.3249 143.137V129.921V129.421H41.8249H1.03198ZM241.781 5.4242L241.724 4.98854H241.285H198.74H198.303L198.245 5.42129L180.729 134.477L167.704 5.43833L167.659 4.98854H167.207H124.662H124.071L124.169 5.57167L155.702 192.595L155.773 193.011H156.195H204.997H205.445L205.494 192.566L219.753 63.2201L233.029 192.562L233.075 193.011H233.527H283.079H283.502L283.572 192.594L314.855 5.57102L314.952 4.98854H314.362H272.568H272.118L272.071 5.43635L258.527 134.496L241.781 5.4242ZM373.754 193.011H374.254V192.511V5.48854V4.98854H373.754H329.708H329.208V5.48854V192.511V193.011H329.708H373.754ZM443.908 193.011H444.408V192.511V120.176C448.132 120.02 451.918 120.01 455.735 120L456.474 119.998C460.7 119.987 464.959 119.963 469.181 119.729C477.624 119.26 485.958 117.945 493.676 114.164C513.986 104.8 518.737 81.8118 518.737 61.5954C518.737 46.3513 516.734 32.2299 506.349 20.6182C500.115 13.5208 490.797 9.62314 480.959 7.4935C471.115 5.36239 460.686 4.98854 452.167 4.98854H399.862H399.362V5.48854V192.511V193.011H399.862H443.908ZM641.032 193.011H641.532V192.511V155.107V154.607H641.032H581.719V115.21H636.277H636.777V114.71V77.3053V76.8053H636.277H581.719V43.3931H638.029H638.529V42.8931V5.48854V4.98854H638.029H537.173H536.673V5.48854V192.511V193.011H537.173H641.032ZM444.408 39.6527H448.663C455.694 39.6527 461.589 39.6593 465.743 41.1124C469.291 42.7729 471.288 46.2158 472.394 50.2264C473.502 54.242 473.69 58.737 473.69 62.3435C473.69 68.7933 472.689 76.0881 468.342 80.928C464.948 83.5718 460.935 84.67 456.711 85.1308C453.837 85.4444 450.912 85.4607 448.03 85.4767C446.813 85.4835 445.603 85.4902 444.408 85.5193V39.6527Z" fill="white" stroke="url(#paint0_linear_4968_36197)"/>
<defs>
<linearGradient id="paint0_linear_4968_36197" x1="0.761148" y1="197" x2="110.602" y2="-161.513" gradientUnits="userSpaceOnUse">
<stop stop-color="#0096FF"/>
<stop offset="0.21875" stop-color="#029CAF"/>
<stop offset="0.46875" stop-color="#F59F00"/>
<stop offset="0.71456" stop-color="#F06F38"/>
<stop offset="1" stop-color="#FF2F92"/>
</linearGradient>
</defs>
</svg>
